<?xml version="1.0" encoding="UTF-8"?>
<svg id="uuid-86cee4f4-a466-461f-9f06-f0e0ce639a69" data-name="Mock_&amp;amp;_Roll_Masterfile" xmlns="http://www.w3.org/2000/svg" width="1639.65137" height="430.88003" viewBox="0 0 1639.65137 430.88003">
  <g id="uuid-c018f9d5-ba61-4b19-b9c1-0b400014c163" data-name="Mock_&amp;amp;_Roll_Wide_Logo_Slate_Grey">
    <g id="uuid-26413247-4d02-4901-b2d2-d4763c40e4b7" data-name="Mocktail_Bar">
      <path id="uuid-c9a443d3-787a-4d76-b4f7-6b98e32b41bc" data-name="R" d="M1237.10498,430.18667l-6.97949-12.02832h-5.19727v12.02832h-6.83105v-34.65039h13.85938c3.20117,0,5.92285,1.12305,8.16797,3.36621,2.24316,2.24512,3.36621,4.9502,3.36621,8.11816,0,2.14551-.61133,4.13281-1.83203,5.96484-1.2207,1.83105-2.83789,3.20996-4.85059,4.13281l7.67188,13.06836h-7.375ZM1224.92822,401.92202v10.24707h7.02832c1.28711,0,2.39258-.50293,3.31641-1.50977s1.38672-2.21973,1.38672-3.63867-.46289-2.62305-1.38672-3.61328-2.0293-1.48535-3.31641-1.48535h-7.02832Z" fill="#324648"/>
      <path id="uuid-5438ae2a-cf93-4a75-9f47-cb06635c96b0" data-name="A" d="M1168.20068,430.18667l-2.0791-6.2373h-13.81055l-2.07812,6.2373h-7.37598l12.12793-34.65039h8.46387l12.17773,34.65039h-7.42578ZM1154.48975,417.5646h9.50391l-4.75195-14.15723-4.75195,14.15723Z" fill="#324648"/>
      <path id="uuid-10fbfed0-a934-478f-af60-c56e64821d8c" data-name="B" d="M1097.81299,412.21792c3.03516,1.75,4.55371,4.38965,4.55371,7.91992,0,2.9375-1.03906,5.34668-3.11816,7.22754s-4.63672,2.82129-7.67285,2.82129h-14.70117v-34.65039h13.66211c2.96973,0,5.46973.91602,7.49902,2.74805,2.0293,1.83105,3.04395,4.16602,3.04395,7.00391,0,2.87109-1.08887,5.18164-3.2666,6.92969ZM1090.53662,401.92202h-6.83105v7.62305h6.83105c1.05566,0,1.9375-.3623,2.64746-1.08887.70996-.72559,1.06445-1.63379,1.06445-2.72266s-.34668-1.99609-1.03906-2.72266c-.69336-.72559-1.58398-1.08887-2.67285-1.08887ZM1091.57568,423.80093c1.15527,0,2.11133-.3877,2.87109-1.16309.75879-.77539,1.13867-1.75684,1.13867-2.94531,0-1.1543-.37988-2.12012-1.13867-2.89551-.75977-.77539-1.71582-1.16309-2.87109-1.16309h-7.87012v8.16699h7.87012Z" fill="#324648"/>
      <path id="uuid-23fd87f9-a3c9-4287-9c2b-a74e17774b2c" data-name="L" d="M969.2124,423.65249h13.21582v6.53418h-20.04688v-34.65039h6.83105v28.11621Z" fill="#324648"/>
      <path id="uuid-ef1fb774-0be5-41f1-889c-2db329dde408" data-name="I" d="M910.01123,395.53628h6.83105v34.65039h-6.83105v-34.65039Z" fill="#324648"/>
      <path id="uuid-f781d1c8-fc7f-4920-8782-b54907e131d3" data-name="A" d="M860.11377,430.18667l-2.07812-6.2373h-13.81055l-2.07812,6.2373h-7.37695l12.12891-34.65039h8.46289l12.17773,34.65039h-7.42578ZM846.40283,417.5646h9.50391l-4.75195-14.15723-4.75195,14.15723Z" fill="#324648"/>
      <path id="uuid-155be715-b89c-46d9-93fb-a725b084cace" data-name="T" d="M797.44775,395.53628v6.53418h-9.35596v28.11621h-6.83057v-28.11621h-9.30615v-6.53418h25.49268Z" fill="#324648"/>
      <path id="uuid-c44e25f7-56d4-4d88-85b5-fd1d849b0a44" data-name="K" d="M732.05859,430.18667h-7.87061l-12.375-16.23633v16.23633h-6.83105v-34.65039h6.83105v15.2959l11.88037-15.2959h7.87012l-12.82031,16.83008,13.31543,17.82031Z" fill="#324648"/>
      <path id="uuid-8ac5329b-9c6d-437c-bff9-995a0962ca7b" data-name="C" d="M646.77002,430.88003c-5.21436,0-9.521-1.73242-12.91943-5.19824-3.39941-3.46484-5.09863-7.73828-5.09863-12.82031,0-5.11426,1.69922-9.39648,5.09863-12.84473,3.39844-3.44824,7.70508-5.17285,12.91943-5.17285,3.13477,0,6.03076.73438,8.6875,2.20215,2.65576,1.46875,4.72705,3.45801,6.21191,5.96484l-5.89014,3.41602c-.85889-1.55078-2.0791-2.76367-3.66309-3.63867-1.58398-.87402-3.36621-1.31152-5.34619-1.31152-3.36572,0-6.08057,1.05664-8.14258,3.16797-2.06299,2.1123-3.09375,4.85059-3.09375,8.2168,0,3.33398,1.03076,6.05664,3.09375,8.16797,2.06201,2.1123,4.77686,3.16797,8.14258,3.16797,1.97998,0,3.77002-.4375,5.37109-1.31152,1.6001-.87402,2.81299-2.07129,3.63818-3.58887l5.89014,3.41504c-1.48486,2.50879-3.54736,4.49707-6.1875,5.96484-2.64014,1.46875-5.54395,2.20312-8.71191,2.20312Z" fill="#324648"/>
      <path id="uuid-824a0056-9890-481b-b650-1fad426ff0bb" data-name="O" d="M581.18311,425.65737c-3.49854,3.48242-7.75537,5.22266-12.771,5.22266-5.0166,0-9.26514-1.74023-12.74609-5.22266-3.48242-3.48145-5.22266-7.74707-5.22266-12.7959s1.74023-9.31348,5.22266-12.7959c3.48096-3.48047,7.72949-5.22168,12.74609-5.22168,5.01562,0,9.27246,1.74121,12.771,5.22168,3.49756,3.48242,5.24707,7.74707,5.24707,12.7959s-1.74951,9.31445-5.24707,12.7959ZM560.44238,421.00405c2.14502,2.12891,4.80176,3.19336,7.96973,3.19336s5.82373-1.06445,7.96924-3.19336c2.14502-2.12793,3.21777-4.8418,3.21777-8.14258,0-3.29883-1.07275-6.02148-3.21777-8.16699-2.14551-2.14551-4.80127-3.21777-7.96924-3.21777s-5.82471,1.07227-7.96973,3.21777c-2.14551,2.14551-3.21729,4.86816-3.21729,8.16699,0,3.30078,1.07178,6.01465,3.21729,8.14258Z" fill="#324648"/>
      <path id="uuid-25e03df1-a5b3-42d8-9762-b4ee6afab24f" data-name="M" d="M506.48828,395.53628v34.65039h-6.78174v-22.47266l-9.75146,16.08691h-.79199l-9.75146-16.03809v22.42383h-6.83105v-34.65039h7.0293l9.94922,16.38477,9.90039-16.38477h7.02881Z" fill="#324648"/>
    </g>
    <g id="uuid-ac61eb72-a80b-43bb-9c98-c07b4036c741" data-name="Mock_&amp;amp;_Roll">
      <g id="uuid-b39da4d8-bd97-4dfd-bbd4-cc0bed06cb56" data-name="Mock_Roll">
        <g id="uuid-31e38132-84f6-4de7-806d-fd6484d72c2a" data-name="Roll">
          <path id="uuid-90c24fee-8bed-4b33-afc2-46265c1c1cc7" data-name="R" d="M1422.58032,357.98159c2.72998,9.13995,2.14038,19.69849-1.16113,29.69958-2.57617,7.86438-6.97827,15.4715-13.11328,21.13129-.60742.51453-1.25415,1.04333-1.98315,1.63287-1.49353,1.21844-3.0907,2.31897-4.79858,3.26581-.88623.50739-1.92236.9433-2.94775,1.37567-1.00415.41089-2.00464.72534-3.02649,1.03973-9.59375,2.72986-24.57214,1.21844-49.6554-16.25397-41.17981-28.68127-98.20459-125.74762-116.05408-159.617,40.59045-8.86481,65.93079-30.9823,65.93079-69.15723,0-23.1358-13.89758-41.25854-29.29224-53.16766-.47168-.37518-.39124-.39661-.86292-.76819-14.58533-12.62018-35.91321-19.57703-66.93127-19.57703-33.83179,0-67.54395,4.63434-101.37219,2.62982-11.14453-.66461-22.43005-1.70795-33.37805-4.00903v7.01758c21.17236-.35016,31.76477,10.3584,31.76477,32.13995v2.41901h-.03931v173.45233s.02136,0,.02136-.01788v1.51501c0,22.01385-10.59595,32.72601-31.78613,32.13641v7.01758c61.2124-10.65497,108.52734,0,108.52734,0v-7.01758c-21.17065.35376-31.7666-10.3584-31.7666-32.13641v-43.10938c.03931.07861.11621.11792.15723.19293v-24.62933h43.52026c.17871,0,.33594-.01788.53064-.01788l1.74902,2.8692c73.06799,151.87085,141.25879,170.38983,167.43884,177.40741,26.51587,7.09259,58.245,7.09259,80.55542-5.742.12158-.05713.17871-.11786.27869-.17505.15723-.10004.35022-.11792.52881-.21796,7.86438-4.34131,14.74255-11.10516,17.59387-19.81281,5.28833-16.17902-4.46631-34.41962-30.42847-41.51581ZM1177.12134,237.99386h-36.32776v-87.73022l.07678-45.50696h51.68127c6.21008,0,11.65369.88611,16.70789,2.22247q2.08484.51093,3.12463.84326c30.52673,7.11761,43.12903,29.76385,43.12903,64.35858,0,47.10052-28.4043,65.81287-78.39185,65.81287Z" fill="#324648"/>
          <path id="uuid-beceda5f-dcb1-4953-bcee-c52a85785eb8" data-name="O" d="M1311.34473,330.31545c16.84705,17.57605,37.38525,26.34442,61.62158,26.34442,24.35425,0,45.33179-9.14349,62.88647-27.40564,17.65112-18.26208,26.53369-40.55103,26.53369-66.91333-.7467-27.40204-8.88257-49.39807-24.43274-66.02722-15.35364-16.62921-35.89539-25.00098-61.66443-25.12244-26.3374-.11792-47.92236,9.08282-64.80884,27.58075-16.74707,18.25848-25.10107,40.55103-25.10107,66.90973,0,25.63696,8.33252,47.18274,24.96533,64.63373ZM1344.85669,204.92483c8.31812-16.74707,18.79443-26.47662,31.43262-26.47662,13.1311,0,23.25366,8.98279,30.3927,24.19702,7.13538,15.1142,10.70862,35.06635,10.70862,59.89575,0,23.86475-4.20203,44.04913-12.65601,60.56042-8.17871,16.51129-18.32275,27.32703-30.37134,27.32703-11.59814,0-21.42773-10.45844-29.50659-26.26227-8.07874-16.15753-12.10571-35.75598-12.10571-58.83459,0-23.65027,4.02698-43.79901,12.10571-60.40674Z" fill="#324648"/>
          <g id="uuid-cc2caf83-d9ee-4e8d-9e77-2536bea7f6b7" data-name="LL">
            <path id="uuid-29857185-7c98-4be8-9a96-4b93d397967d" data-name="L" d="M1639.43701,345.8406c-11.73413-.68964-19.10889-7.35345-22.29248-19.73425-.11792-.43231-.27515-.82892-.3717-1.31848-.04285-.17505-1.30066-9.45441-1.37561-13.1311-.02148-.92188-.11792-1.76868-.11792-2.75482,0,0-.61108-168.75372-.62891-169.10748,0,0-.47168-23.4895-.51453-23.4895-.76819-44.69946-15.90027-70.86523-41.55505-94.49054-16.74707-15.41431-42.53772-22.62482-66.42029-21.74225-16.6864.61096-34.73401,7.72498-50.62,22.0567-15.86108,13.79572-26.84827,34.94843-31.25024,54.01807-4.95605,21.50287-2.43701,45.50336,5.72046,60.71759,10.02612,18.71228,22.271,31.15741,40.09717,37.64612,16.88647,6.14929,48.69067,10.14044,74.73853-5.93848,3.4624-2.12244,6.32788-5.1095,9.02197-8.17523,5.95642-6.74243,10.16199-15.43579,9.92615-24.57574-.42883-17.00079-15.74304-30.91803-42.59851-28.89563,5.64197,7.68927,8.63269,17.82971,8.88989,28.38824.27161,11.45892-1.57568,24.98309-10.77283,32.25433-8.59338,6.80316-34.36243,7.66785-48.65125.9433-15.88599-7.11407-28.14893-21.20636-34.99133-37.04944-6.96033-15.90387-8.15735-33.90869-3.30164-49.85181,4.81665-16.1004,15.27502-32.27582,29.18872-42.9093,13.44556-10.4978,29.19214-13.76361,44.19202-12.89886,14.99622.92542,28.93494,8.4718,39.52917,20.19153,18.10486,20.04504,25.79053,48.90497,27.00903,78.23291.01782,2.14032.01782,4.22699.01782,6.74243l.49316,179.36938c.05713,10.12262-1.57227,22.88214-9.94751,30.25342-1.76514,1.53284-3.75537,2.69409-6.01367,3.55878-.41431.15369-.90393.23584-1.31836.35376-2.10449.68604-4.36279,1.21844-6.92114,1.33636v6.11353c51.91711-12.58087,90.85669,0,91.05322-.03931-.01782-.02142-.01782-5.93848-.21436-6.07422Z" fill="#324648"/>
            <g id="uuid-5b8146d2-144f-4132-addb-7c3f2c464044" data-name="L">
              <path d="M1520.54932,326.10635c-.11792-.43231-.27515-.82892-.37158-1.31848-.04285-.17505-1.297-9.45441-1.37915-13.1311-.01782-.92188-.11438-1.76868-.11438-2.75482l-.68958-123.48621s-20.46313,6.9425-42.38403-1.60791v126.53046c.06421,10.12262-.979,22.88214-9.35437,30.25342-1.76868,1.53284-3.75537,2.69409-6.01709,3.55524-.40735.15723-.90405.23938-1.31494.3573-2.10095.68604-4.36267,1.21844-6.92102,1.33636v6.11353c51.91699-12.58087,90.86011,0,91.05322-.04285-.03589,0-.03589-5.91705-.23584-6.07068-11.71631-.68964-19.08752-7.35345-22.27124-19.73425Z" fill="#324648"/>
              <path d="M1475.6748,160.45406c20.65967,9.34009,42.2019-3.14429,42.2019-3.14429v-27.91302c0-10.8515,1.23987-23.33234-4.75586-33.0047-7.43188-11.99127-22.52832-11.04797-34.53748-7.76434-5.91711,1.61151-11.67688,3.89471-17.24011,6.50665-3.06934,1.4328-6.15295,2.96564-9.06152,4.71649v2.02594c26.65186,0,23.31104,10.24048,23.31104,30.1712l.08203,28.40607Z" fill="#324648"/>
            </g>
          </g>
        </g>
        <g id="uuid-ffdc2f8b-cb83-45e3-af0a-4f8cafe98363" data-name="Mock">
          <path id="uuid-de5ab568-f376-4988-a4b5-1fa9b9dc443b" data-name="M" d="M318.66113,403.61105c-21.89948-21.15271-26.39978-37.4317-26.08539-73.44141-.01782.02148.13934-3.30151.09827-3.26221,0-.31445,0-1.59363.01965-3.59454v-6.09924c.02142-19.38049,0-72.98474.03931-83.28601,0,0-.01788.02148-.03931.02148v-97.1275c0-21.40637,10.71216-32.11853,32.14001-32.11853v-6.99969s.1983-.23584-.17865-.17865c-43.6972,6.82104-72.86615,4.50208-74.61694,3.99469l-80.53583,197.4707S83.20667,114.80422,83.52112,100.4761c0,0-53.93768,3.86969-83.42285-2.85132l-.09827.10004v6.99615c21.4046,0,32.11853,10.69427,32.11853,32.11853v177.0719c0,21.99597-10.71393,33.0047-32.11853,33.0047v6.15283s34.73584-7.41058,71.67096,0h.07678v-5.83484c-21.28851-.23944-31.88269-11.36603-31.74695-33.34412V125.402l102.47278,227.25244h12.81671l93.35071-227.25244v178.80127h.05896c.02142,7.68219.03931,24.11908.03931,24.45496,0,0,.29657,4.7558.80573,7.52496,6.21362,70.0791,128.02759,108.44702,153.91467,88.97009,13.60455-10.24054,17.59747-29.91754,1.43817-51.44189-13.93689,36.03113-58.6756,56.51569-86.23669,29.89966Z" fill="#324648"/>
          <path id="uuid-e984a4bf-c9f5-4aca-9816-d21e43dbdfc0" data-name="O" d="M395.71814,171.19125c-26.33911-.11792-47.92236,9.08282-64.81061,27.58075-16.74707,18.25848-25.10101,40.55103-25.10101,66.90973,0,25.63696,8.33606,47.18274,24.96704,64.63373,16.84534,17.57605,37.38348,26.34442,61.62158,26.34442,24.35425,0,45.33185-9.14349,62.8847-27.40564,17.65106-18.26208,26.53558-40.55103,26.53558-66.91333-.74677-27.40204-8.88452-49.39807-24.43103-66.02722-15.35358-16.62921-35.89532-25.00098-61.66626-25.12244ZM424.16351,323.1014c-8.17877,16.51129-18.32104,27.32703-30.36951,27.32703-11.60004,0-21.42786-10.45844-29.50842-26.26227-8.07874-16.15753-12.10742-35.75598-12.10742-58.83459,0-23.65027,4.02869-43.79901,12.10742-60.40674,8.31818-16.74707,18.79449-26.47662,31.43256-26.47662,13.13287,0,23.25372,8.98279,30.39276,24.19702,7.13367,15.1142,10.70856,35.06635,10.70856,59.89575,0,23.86475-4.20374,44.04913-12.65594,60.56042Z" fill="#324648"/>
          <path id="uuid-32ffff51-2dc8-4496-abda-2782ca18739d" data-name="C" d="M650.97479,275.66836c-.27686-1.42737-2.29791-1.48596-2.65692-.07703l-1.7077,6.70172c-9.71167,37.23169-27.81653,56.37634-54.25391,57.41968-16.98468.47162-30.92334-6.50665-41.79449-20.89551-10.88898-14.74255-16.56842-32.3186-17.0401-52.6817-.23761-13.69922,1.33636-26.98755,4.73438-39.86499,3.63739-12.87744,9.26147-23.76471,16.86859-32.66882,7.84113-9.26147,16.78821-13.87793,26.86969-13.87793,8.86481.11792,15.29462,2.06525,19.53943,5.62048.4538.39661,1.02374.61102,1.45605,1.04333,8.25385,8.31464,11.55896,20.52386,11.55896,31.98279,0,10.55493-2.7334,20.7597-8.17883,28.58118,26.89117,1.35425,41.87134-12.93457,41.87134-29.95679,0-9.14355-4.42346-17.71185-10.53882-24.31848-2.76917-2.98358-5.74017-5.85632-9.2168-7.96088-30.03723-18.24066-60.26923-12.83813-65.18219-12.26642-21.11346,2.89062-38.19641,11.44104-50.83624,26.2265-15.44824,17.78687-23.23407,40.39026-23.35193,67.77448.11786,25.53333,8.49323,46.96118,25.10095,64.27997,16.15936,17.19733,36.64209,25.8692,61.46979,25.98712,19.91284,0,36.46161-6.4494,49.69281-19.3233,12.42212-11.89667,20.88965-27.78912,25.39874-47.67731,1.04614-4.61407,1.09808-9.4035.1972-14.0481Z" fill="#324648"/>
          <path id="uuid-d5fe48ac-661f-42f4-ac21-9f6977f36d5a" data-name="K" d="M836.23138,343.61422c-.05823-.02643-2.09753-.94623-3.45001-1.66998-13.22998-7.08002-26.44-21.88-38.31-38.83002-16.87982-24.09296-31.06512-52.52716-38.8053-69.35089l.76636-.75037,4.28412-4.18414,21.62439-21.60291c16.63098-17.55817,37.70331-26.34088,63.21875-26.34088v-5.9599h-.35547c-41.41577,6.48871-78.68854,0-78.68854,0v5.97778c7.96265-.35376,12.81848,1.74725,14.58539,6.31006,1.75262,4.46283-2.09918,11.36249-11.59467,20.71686l-62.45056,61.58588-.66998-142.98456c0-10.948,1.2381-23.55029-4.79688-33.30127-7.50708-12.10565-22.74451-11.14447-34.85199-7.82153-5.99384,1.62933-11.79297,3.93402-17.41705,6.56738-3.10321,1.45068-6.19214,2.98712-9.13995,4.7558v2.04382c26.91254,0,23.51276,10.32263,23.51276,30.44989l.50916,181.00226c.05719,10.20123-1.5918,23.07867-10.04395,30.52856-1.76868,1.53284-3.79462,2.71198-6.0564,3.57306-.43237.15723-.90399.23944-1.33636.35736-2.14026.68604-4.40204,1.23627-6.97644,1.35773v6.14929c52.3869-12.69519,91.68024,0,91.875-.03925,0,0,0-5.97424-.19476-6.11005-11.83228-.68958-19.26434-7.41412-22.48724-19.91284-.11792-.4538-.27515-.8468-.37341-1.3399-.04108-.17511-1.31848-9.5509-1.39886-13.24548-.01788-.9433-.11615-1.7901-.11615-2.77271v-27.81299l20.89093-20.11609c15.96216,27.77563,32.52563,57.28021,34.3371,60.47003,12.23999,21.41998,37.77002,30.90002,59.12,30.90002h24.12v-.02002c0-4.75-4.07996-6.20001-9.32996-8.58002Z" fill="#324648"/>
        </g>
      </g>
      <g id="uuid-dd8ff152-879c-4983-86d6-ddcc99094357" data-name="Icon">
        <g id="uuid-ff28a1ab-0e37-464f-82dd-b35f3fed262d" data-name="Bubbles">
          <circle cx="905.83716" cy="295.0603" r="7.94644" transform="translate(286.58826 1019.03015) rotate(-67.50001)" fill="#324648"/>
          <circle cx="917.92376" cy="313.42392" r="5.94312" transform="translate(-47.45475 219.28091) rotate(-13.28258)" fill="#324648"/>
          <circle cx="915.25269" cy="331.38689" r="4.54084" fill="#324648"/>
          <circle cx="926.60476" cy="345.20969" r="4.04002" transform="translate(253.07696 1069.17544) rotate(-67.50005)" fill="#324648"/>
        </g>
        <g id="uuid-ff082a60-9e92-47e6-a736-67fb526119b7" data-name="Ampersand">
          <path id="uuid-9acebc16-7878-4b22-9783-cadabea685de" data-name="Bottom" d="M1069.84891,199.28785c2.25961-1.05438,8.20959-4.64765,10.92488-14.12885.00606-.02128,3.83523-13.50952,1.53067-26.28319-.19159-1.06193-1.59765-1.33046-2.18448-.42489-2.17037,3.34921-6.52091,9.60402-12.45591,15.96238-.00763.00768-8.13021,9.08007-10.85658,15.6829-.08158.19744-.37552.14042-.38051-.07312-.02504-1.08879.05886-3.07101.74272-5.51017.0547-.1951-.16269-.34729-.3241-.22481-3.14212,2.38417-6.5128,4.51918-10.06392,6.19971-3.21331,1.51451-6.97958,2.68441-11.05818,3.75018,0,0-.55296.13621-.80934.20835-7.85769,2.06694-9.81688,3.9713-11.13047,8.95168-.04813.18223-.3003.20757-.36662.03115-.34142-.90879-.82325-3.00522.35573-5.96811.05837-.14669-.0667-.30177-.21998-.26393-6.47998,1.59956-13.15509,3.49952-19.30531,6.47243-.522.25232-2.33466,1.20017-2.38792,1.23402-4.15647,2.64088-5.28743,8.33367-5.56597,10.38354-.02729.20087-.3068.22425-.3675.03086-.32806-1.04592-.72426-3.1894.10036-6.19629.05371-.19586-.16856-.35475-.32938-.23073-7.80388,6.01791-13.81217,15.00963-15.91392,29.24343-.02406.20033-.30451.24044-.36863.04808-.71319-2.09946-1.41033-5.56915-.80132-10.33702.8494-6.62695,3.99859-12.71697,8.52608-17.62106,2.08618-2.25883,4.34135-4.2259,6.73528-5.95389.0985-.0711.15627-.18264.15754-.30411.09134-8.73539,3.68681-18.06304,7.26653-25.83498.12022-.2644.52088-.12017.44874.16027-1.17797,4.59958-2.05138,9.29536-2.4921,13.9911-.1683,1.89111-.28851,3.87837-.28049,5.86568,0,.18429.24044.26445.3606.12017,9.90438-12.36439,20.15331-24.44829,30.89095-36.11553.20033-.21637.54484.05605.38462.30446-7.38816,11.34675-14.90457,22.62135-22.34883,33.92799-.1122.16027.0561.3606.23237.28846,6.45058-2.40397,13.0295-3.95853,18.99941-5.37684,2.41199-.57698,4.78387-1.13791,7.04355-1.72286.54494-.14423.97769-.56896,1.13791-1.10583,1.45836-4.82397,2.6444-9.42355,3.61397-13.71061.04011-.20033-.1523-.36863-.34461-.30451-1.21793.44072-2.80463.78528-4.69573.71319-.16825-.00802-.25648-.22439-.13616-.34456,1.27398-1.27412,5.9297-6.667,8.52598-19.57634v-.01599c.38462-3.26139.57693-5.76151.67318-7.30003.04803-.85742-.78528-1.48247-1.59462-1.20198-4.47946,1.55452-8.70244,3.1732-12.69301,4.84799-.17627.08011-.36858.16027-.56891.24039-.46483.18429-.92154.3766-1.35419.57693-11.03078,4.91332-13.24369,12.03512-13.69015,14.56052-.03449.19507-.30969.20374-.35662.01128-.29623-1.21467-.76025-3.59109-.84185-6.79897-.00802-.20835-.22439-.33654-.40066-.24039-5.4009,3.02902-10.20081,6.16217-14.47989,9.37548-5.96184,4.47936-10.38515,10.76977-12.20412,17.99766-.32055,1.29819-.57698,2.66039-.7372,4.08677-.02406.17627-.23241.24841-.34461.1122-.60896-.76127-1.97122-2.89281-2.28375-7.08371-.01604-.24039-.32055-.33654-.4728-.15225-3.50974,4.13485-4.94414,6.17019-7.60454,10.63356-5.96184,10.77779-4.18288,22.10042-3.74216,24.3762.03204.1683-.14423.29649-.29649.21637-1.81902-1.00165-3.0771-2.13956-3.94249-3.22935-.13626-.17627-.4167-.10418-.45676.1122-2.0885,9.95959-1.49054,18.34119-.67905,23.48366l-33.36241-.23535-5.22635-24.0936c-.6499-2.99478-2.85471-5.47348-5.75402-6.46848l-60.07097-20.60807c-.57527-.19539-1.61859,1.3447-2.33026,3.4399-.70683,2.08092-.82049,3.92699-.25839,4.14355l60.05884,20.6043c.26411.09077.46483.31615.52391.58769l4.84535,22.3368-35.68885-.25173c1.76355-8.28172,4.6391-15.32224,8.21394-21.28525.13075-.21809.02822-.49671-.21231-.57919l-37.26704-12.77948c-.27739-.09512-.58455-.03415-.80185.16276-15.74404,14.26714-29.5134,37.47388-29.5134,73.09202,0,70.87693,76.06146,88.8586,112.2171,88.8586,19.83233,0,51.68345-5.42135,76.38387-22.00823,2.88132-2.10988,8.63299-6.17992,14.50009-12.24701,8.93192-9.23794,18.18136-23.14463,18.18136-42.00391,0-26.7249-10.15743-42.02282-13.09987-45.89384-.48-.63147-1.18194-1.05555-1.96209-1.19884l-14.0603-2.58248c6.12937-1.23274,11.08021-2.7764,12.47897-3.22912.15886-.05142.18713-.259.0483-.35178-1.34392-.89807-3.64876-2.86011-3.95747-3.48907-.06984-.14228.04304-.30187.20033-.28308,2.05847.24562,12.74955,1.34954,19.21686-1.34274.17636-.07346,6.47547-2.8473,11.90237-7.80546.14916-.13628.02206-.39133-.17541-.34864-4.07658.88136-8.08641-.4745-9.7662-1.17076-.1971-.08173-.14115-.37293.07229-.37689,2.94128-.05492,12.29822-.52455,15.43581-4.23325.00538-.00641.63464-.84558.77726-1.04171,1.45044-1.99528,2.85275-4.19892,4.19892-6.65096,2.23035-4.05808,4.12403-7.944,5.71665-11.66462.06348-.1483-.08243-.29445-.23469-.24115-2.29629.80392-4.59863.99683-5.86088,1.03697-.20908.00665-.27824-.27576-.08868-.36421ZM885.82612,247.31236l38.90867.27443,5.83389,26.89397c-5.92305-2.08068-14.19784-4.14933-23.23648-3.87798-9.31287.28318-17.65999,2.99669-23.4707,5.49637-.24176-8.98513.34036-18.59532,1.96462-28.78679ZM964.79844,353.74912c-1.23407,1.05775-2.74853,1.72286-4.37524,1.89913-3.89441.42472-11.94769.9616-20.2414.9616s-16.83578-.53687-20.73019-.9616c-1.61869-.17627-3.14117-.84138-4.37519-1.89913-12.91369-11.11404-27.72802-35.05108-30.72529-69.05028,4.99281-2.41228,13.62032-5.79447,23.22444-6.08597,14.9884-.45622,28.05996,6.74002,28.18478,6.81045.58847.33023,14.18199,7.85906,30.72216,7.85906.53995,0,1.08538-.00783,1.6316-.02426,11.17679-.33992,21.34238-4.41387,27.29512-7.35471-3.23713,33.35894-17.85049,56.86363-30.6108,67.84571ZM996.00191,276.47712c-2.6423,1.5709-14.80929,8.36619-28.13117,8.77091-15.00561.45544-28.06035-6.74081-28.18517-6.81124-.01321-.00743-.04143-.02304-.06764-.03751l-6.67126-30.75454,61.22615.43182c1.5552,10.05179,2.0911,19.53066,1.82909,28.40056ZM1047.9596,209.61536c-5.23256,2.75655-10.77784,4.97618-16.35501,6.87536-13.59557,4.3276-23.42673,6.89238-32.0362,12.96856-.13626.09611-.05605.31228.10956.29311,2.14362-.24826,4.92502-.16218,7.16582-.09596,6.05799.12819,12.57274-.36863,18.01375-3.22133.21637-.1122.40868.19231.20835.34456-6.63066,5.03937-22.47071,5.72399-27.47736,6.28239-2.08342.23237-4.44733.61698-6.45865,1.23402-2.67644.82539-5.19255,2.45204-7.22794,4.1348-.18429.15225-.42468-.07209-.28846-.2644,12.14802-17.34864,25.99488-20.16129,46.68507-25.79455,6.59486-1.91517,13.03752-4.27908,19.15954-7.37217,8.40586-4.88007,16.82776-12.62884,22.00427-21.24305.1523-.26445.54494-.06412.42472.21637-4.4954,10.22488-14.47192,20.85041-23.92746,25.6423Z" fill="#324648"/>
          <path id="uuid-eb0912d6-9160-44fc-82c5-7a6080d56400" data-name="Droplet" d="M965.16007,150.74573c-2.38851,3.38772-6.14984,9.40433-6.5819,14.23119-.00054.00484-.04553.60138-.04553.88647,0,4.74851,3.84937,8.59797,8.59787,8.59797s8.59792-3.84947,8.59792-8.59797c0-.28509-.04505-.88163-.04553-.88647-.43206-4.82686-4.19344-10.84347-6.5819-14.23119-.96306-1.36597-2.97791-1.36597-3.94092,0Z" fill="#324648"/>
          <path id="uuid-98c31ec1-9ed7-4c05-901c-4bf125746a6a" data-name="Top" d="M897.5099,184.71676c.09068.01208.09625.13538.00562.14795-3.02398.42066-6.20012,1.23744-8.6664,1.96907-1.64265.48723-2.97043.93675-3.73252,1.20433-.23682.08314-.23217.417.00518.49853l28.26347,9.70395c.24195.08305.50973.04265.71871-.10496,10.55071-7.45277,21.28076-10.73079,26.87113-12.04707,1.21-.28851,1.41836-1.91517.31253-2.49215-8.3097-4.33513-28.38281-17.30051-33.31898-43.34347-.66506-4.12683-1.04973-8.4219-1.12984-12.83719,0-.72918-.00802-1.42633-.02406-2.09144.04011-14.31962,1.77896-27.4533,4.65573-37.67015.71314-2.53216,1.49045-4.88007,2.33985-7.02761,2.71649-6.92338,8.70234-12.11598,15.9543-13.75868.04006-.01604.08813-.02401.12824-.03204,3.13315-.70517,6.51475-1.08983,10.04856-1.08983,3.89441,0,7.30805.4728,10.20081,1.13791,2.01133.46473,3.91848,1.20198,5.68139,2.17155,4.74381,2.6043,8.46196,6.87536,10.4412,12.05993.76929,2.01128,1.4905,4.1909,2.13956,6.52272,1.24571,4.42013,2.28575,9.40492,3.06101,14.77589.52293,4.05557,1.77563,18.14047-3.77791,31.40415-.69255,1.65405.32911,3.52261,2.09472,3.83597l2.45248.43524c3.15022.54431,6.41752.72038,9.77785.45559,19.16047-1.50981,34.46574-17.18147,35.5028-36.37333.87752-16.23895-8.27654-30.44735-21.82595-36.97051-.26337-.12682-1.57085-.71333-1.71484-.77726-24.81692-11.01818-54.03313-10.69768-54.03313-10.69768,0,0-46.2042-.50479-71.76639,21.63569-20.6581,17.90155-19.40799,44.34517-19.40799,50.75575,0,11.21547,7.13081,53.05843,48.74286,58.59916ZM994.33642,126.59936c-3.47306,2.01548-7.40103,3.37608-11.63648,3.9015-.72502.08862-1.44638.1522-2.16343.19089-1.6205.0873-2.84512-1.41576-2.46769-2.9941,1.66901-6.98007,2.01724-13.56784,1.90255-18.67196-.01643-.73197.88197-1.09624,1.38329-.5627,3.04726,3.243,10.08832,10.73636,13.53375,14.40315,1.06245,1.13067.78998,2.95448-.55198,3.73321ZM1009.4713,103.28458c-.52968,5.00777-2.27979,9.71079-4.97857,13.75961-.86187,1.2929-2.70158,1.45406-3.76554.32162l-12.38684-13.18386c-.44908-.47799-.16517-1.26361.48576-1.34401l17.95716-2.21806c1.54586-.19094,2.85187,1.11571,2.68803,2.6647ZM995.56218,77.68737c.7394-1.36832,2.55945-1.68007,3.72504-.65024,3.75072,3.31367,6.70261,7.55406,8.47883,12.41848.53066,1.45333-.4323,3.02545-1.9678,3.21522l-18.10281,2.23704c-.64618.07987-1.11277-.60344-.80328-1.17621l8.67002-16.04429ZM973.08237,69.87996c.68663-.1324,1.38207-.24205,2.08518-.32769,4.10174-.50953,8.11735-.18375,11.86992.84451,1.49363.40927,2.21733,2.10577,1.48101,3.46822l-9.48821,17.55679c-.35185.65098-1.32152.52024-1.4858-.20126-.35963-1.57927-.88598-3.79669-1.42334-5.72996-.69715-2.50814-1.49847-4.94414-2.37193-7.23591-.63239-1.66011-1.40187-3.25625-2.2972-4.77149-.85605-1.44878-.02201-3.28462,1.63038-3.60321Z" fill="#324648"/>
        </g>
      </g>
    </g>
  </g>
</svg>